
<svg version="1.1" xmlns="http://www.w3.org/2000/svg" xmlns:xlink="http://www.w3.org/1999/xlink" width="579" height="1186"><defs/><g><g/><g/><g/><g/><g/><g/><g/><g/><g/><g/><g/><g/><g/><g/><g/><g><rect fill="white" stroke="none" x="0" y="0" width="579" height="1186"/></g><g><text fill="black" stroke="none" font-family="sans-serif" font-size="16.5pt" font-style="normal" font-weight="normal" text-decoration="normal" x="98.13586499447462" y="26.3876361" text-anchor="start" dominant-baseline="alphabetic" xml:space="preserve">Magic Castle configuration by cloud-init</text></g><g/><g><path fill="none" stroke="black" paint-order="fill stroke markers" d=" M 50.30239959032812 103.26361593799999 L 50.30239959032812 1186.915871778" stroke-miterlimit="10" stroke-width="1.4659797833333332" stroke-dasharray="13.532121076923076,5.863919133333333"/><path fill="none" stroke="black" paint-order="fill stroke markers" d=" M 238.18004599195572 103.26361593799999 L 238.18004599195572 1186.915871778" stroke-miterlimit="10" stroke-width="1.4659797833333332" stroke-dasharray="13.532121076923076,5.863919133333333"/><path fill="none" stroke="black" paint-order="fill stroke markers" d=" M 357.6398684372031 103.26361593799999 L 357.6398684372031 1186.915871778" stroke-miterlimit="10" stroke-width="1.4659797833333332" stroke-dasharray="13.532121076923076,5.863919133333333"/><path fill="none" stroke="black" paint-order="fill stroke markers" d=" M 490.8251653595586 103.26361593799999 L 490.8251653595586 1186.915871778" stroke-miterlimit="10" stroke-width="1.4659797833333332" stroke-dasharray="13.532121076923076,5.863919133333333"/></g><g><path fill="none" stroke="none"/><g><path fill="white" stroke="black" paint-order="fill stroke markers" d=" M 8.795878699999996 55.765870957999994 L 91.80892048065624 55.765870957999994 L 91.80892048065624 103.26361593799999 L 8.795878699999996 103.26361593799999 L 8.795878699999996 55.765870957999994 Z" stroke-miterlimit="10" stroke-width="2.814681184" stroke-dasharray=""/></g><g><g/><text fill="black" stroke="none" font-family="sans-serif" font-size="11pt" font-style="normal" font-weight="normal" text-decoration="normal" x="27.882935478999997" y="85.67185853800001" text-anchor="start" dominant-baseline="alphabetic" xml:space="preserve">puppet</text></g><path fill="none" stroke="none"/><g><path fill="white" stroke="black" paint-order="fill stroke markers" d=" M 201.98133302399089 55.765870957999994 L 274.37875895992056 55.765870957999994 L 274.37875895992056 103.26361593799999 L 201.98133302399089 103.26361593799999 L 201.98133302399089 55.765870957999994 Z" stroke-miterlimit="10" stroke-width="2.814681184" stroke-dasharray=""/></g><g><g/><text fill="black" stroke="none" font-family="sans-serif" font-size="11pt" font-style="normal" font-weight="normal" text-decoration="normal" x="221.06838980299088" y="85.67185853800001" text-anchor="start" dominant-baseline="alphabetic" xml:space="preserve">inst_i</text></g><path fill="none" stroke="none"/><g><path fill="white" stroke="black" paint-order="fill stroke markers" d=" M 321.44115546923825 55.765870957999994 L 393.83858140516793 55.765870957999994 L 393.83858140516793 103.26361593799999 L 321.44115546923825 103.26361593799999 L 321.44115546923825 55.765870957999994 Z" stroke-miterlimit="10" stroke-width="2.814681184" stroke-dasharray=""/></g><g><g/><text fill="black" stroke="none" font-family="sans-serif" font-size="11pt" font-style="normal" font-weight="normal" text-decoration="normal" x="340.5282122482383" y="85.67185853800001" text-anchor="start" dominant-baseline="alphabetic" xml:space="preserve">inst_j</text></g><path fill="none" stroke="none"/><g><path fill="white" stroke="black" paint-order="fill stroke markers" d=" M 411.43033880516793 55.765870957999994 L 570.2199919139492 55.765870957999994 L 570.2199919139492 103.26361593799999 L 411.43033880516793 103.26361593799999 L 411.43033880516793 55.765870957999994 Z" stroke-miterlimit="10" stroke-width="2.814681184" stroke-dasharray=""/></g><g><g/><text fill="black" stroke="none" font-family="sans-serif" font-size="11pt" font-style="normal" font-weight="normal" text-decoration="normal" x="430.51739558416796" y="85.67185853800001" text-anchor="start" dominant-baseline="alphabetic" xml:space="preserve">config_git_url repo</text></g></g><g><g><g><rect fill="white" stroke="none" x="71.11931251366146" y="138.447130738" width="90.84657324050781" height="22.86928462"/></g><text fill="black" stroke="none" font-family="sans-serif" font-size="11pt" font-style="normal" font-weight="normal" text-decoration="normal" x="73.75807612366145" y="154.27971239800002" text-anchor="start" dominant-baseline="alphabetic" xml:space="preserve">yum upgrade</text></g><g><path fill="none" stroke="black" paint-order="fill stroke markers" d=" M 50.30239959032812 161.316415358 L 120.66942919032812 161.316415358 L 120.66942919032812 184.185699978 L 64.78627984966145 184.185699978" stroke-miterlimit="10" stroke-width="1.4659797833333332" stroke-dasharray=""/><g transform="translate(50.30239959032812,184.185699978) translate(-50.30239959032812,-184.185699978)"><path fill="black" stroke="none" paint-order="stroke fill markers" d=" M 64.96219742366145 176.85580106133332 L 50.30239959032812 184.185699978 L 64.96219742366145 191.51559889466668 Z"/></g></g><g><g><rect fill="white" stroke="none" x="258.99695891528904" y="210.573336078" width="90.84657324050781" height="22.86928462"/></g><text fill="black" stroke="none" font-family="sans-serif" font-size="11pt" font-style="normal" font-weight="normal" text-decoration="normal" x="261.63572252528905" y="226.40591773800003" text-anchor="start" dominant-baseline="alphabetic" xml:space="preserve">yum upgrade</text></g><g><path fill="none" stroke="black" paint-order="fill stroke markers" d=" M 238.18004599195572 233.442620698 L 308.5470755919557 233.442620698 L 308.5470755919557 256.311905318 L 252.66392625128907 256.311905318" stroke-miterlimit="10" stroke-width="1.4659797833333332" stroke-dasharray=""/><g transform="translate(238.18004599195572,256.311905318) translate(-238.18004599195572,-256.311905318)"><path fill="black" stroke="none" paint-order="stroke fill markers" d=" M 252.83984382528905 248.98200640133334 L 238.18004599195572 256.311905318 L 252.83984382528905 263.64180423466667 Z"/></g></g><g><g><rect fill="white" stroke="none" x="378.45678136053647" y="282.699541418" width="90.84657324050781" height="22.86928462"/></g><text fill="black" stroke="none" font-family="sans-serif" font-size="11pt" font-style="normal" font-weight="normal" text-decoration="normal" x="381.0955449705365" y="298.53212307800004" text-anchor="start" dominant-baseline="alphabetic" xml:space="preserve">yum upgrade</text></g><g><path fill="none" stroke="black" paint-order="fill stroke markers" d=" M 357.6398684372031 305.56882603800005 L 428.0068980372031 305.56882603800005 L 428.0068980372031 328.438110658 L 372.12374869653644 328.438110658" stroke-miterlimit="10" stroke-width="1.4659797833333332" stroke-dasharray=""/><g transform="translate(357.6398684372031,328.438110658) translate(-357.6398684372031,-328.438110658)"><path fill="black" stroke="none" paint-order="stroke fill markers" d=" M 372.2996662705365 321.1082117413334 L 357.6398684372031 328.438110658 L 372.2996662705365 335.7680095746667 Z"/></g></g><g><g><rect fill="white" stroke="none" x="71.11931251366146" y="354.82574675800004" width="92.48579443191406" height="22.86928462"/></g><text fill="black" stroke="none" font-family="sans-serif" font-size="11pt" font-style="normal" font-weight="normal" text-decoration="normal" x="73.75807612366145" y="370.65832841800005" text-anchor="start" dominant-baseline="alphabetic" xml:space="preserve">Install puppet</text></g><g><path fill="none" stroke="black" paint-order="fill stroke markers" d=" M 50.30239959032812 377.69503137800007 L 120.66942919032812 377.69503137800007 L 120.66942919032812 400.56431599800004 L 64.78627984966145 400.56431599800004" stroke-miterlimit="10" stroke-width="1.4659797833333332" stroke-dasharray=""/><g transform="translate(50.30239959032812,400.56431599800004) translate(-50.30239959032812,-400.56431599800004)"><path fill="black" stroke="none" paint-order="stroke fill markers" d=" M 64.96219742366145 393.2344170813334 L 50.30239959032812 400.56431599800004 L 64.96219742366145 407.8942149146667 Z"/></g></g><g><g><rect fill="white" stroke="none" x="71.11931251366146" y="426.95195209800005" width="133.21589697097656" height="22.86928462"/></g><text fill="black" stroke="none" font-family="sans-serif" font-size="11pt" font-style="normal" font-weight="normal" text-decoration="normal" x="73.75807612366145" y="442.78453375800007" text-anchor="start" dominant-baseline="alphabetic" xml:space="preserve">Install puppetserver</text></g><g><path fill="none" stroke="black" paint-order="fill stroke markers" d=" M 50.30239959032812 449.8212367180001 L 120.66942919032812 449.8212367180001 L 120.66942919032812 472.69052133800005 L 64.78627984966145 472.69052133800005" stroke-miterlimit="10" stroke-width="1.4659797833333332" stroke-dasharray=""/><g transform="translate(50.30239959032812,472.69052133800005) translate(-50.30239959032812,-472.69052133800005)"><path fill="black" stroke="none" paint-order="stroke fill markers" d=" M 64.96219742366145 465.3606224213334 L 50.30239959032812 472.69052133800005 L 64.96219742366145 480.0204202546667 Z"/></g></g><g><g><rect fill="white" stroke="none" x="378.45678136053647" y="499.078157438" width="92.48579443191406" height="22.86928462"/></g><text fill="black" stroke="none" font-family="sans-serif" font-size="11pt" font-style="normal" font-weight="normal" text-decoration="normal" x="381.0955449705365" y="514.910739098" text-anchor="start" dominant-baseline="alphabetic" xml:space="preserve">Install puppet</text></g><g><path fill="none" stroke="black" paint-order="fill stroke markers" d=" M 357.6398684372031 521.947442058 L 428.0068980372031 521.947442058 L 428.0068980372031 544.816726678 L 372.12374869653644 544.816726678" stroke-miterlimit="10" stroke-width="1.4659797833333332" stroke-dasharray=""/><g transform="translate(357.6398684372031,544.816726678) translate(-357.6398684372031,-544.816726678)"><path fill="black" stroke="none" paint-order="stroke fill markers" d=" M 372.2996662705365 537.4868277613333 L 357.6398684372031 544.816726678 L 372.2996662705365 552.1466255946667 Z"/></g></g><g><g><rect fill="white" stroke="none" x="258.99695891528904" y="571.204362778" width="92.48579443191406" height="22.86928462"/></g><text fill="black" stroke="none" font-family="sans-serif" font-size="11pt" font-style="normal" font-weight="normal" text-decoration="normal" x="261.63572252528905" y="587.036944438" text-anchor="start" dominant-baseline="alphabetic" xml:space="preserve">Install puppet</text></g><g><path fill="none" stroke="black" paint-order="fill stroke markers" d=" M 238.18004599195572 594.0736473979999 L 308.5470755919557 594.0736473979999 L 308.5470755919557 616.942932018 L 252.66392625128907 616.942932018" stroke-miterlimit="10" stroke-width="1.4659797833333332" stroke-dasharray=""/><g transform="translate(238.18004599195572,616.942932018) translate(-238.18004599195572,-616.942932018)"><path fill="black" stroke="none" paint-order="stroke fill markers" d=" M 252.83984382528905 609.6130331013333 L 238.18004599195572 616.942932018 L 252.83984382528905 624.2728309346667 Z"/></g></g><g><g><rect fill="white" stroke="none" x="71.11931251366146" y="643.330568118" width="152.80789221023437" height="22.86928462"/></g><text fill="black" stroke="none" font-family="sans-serif" font-size="11pt" font-style="normal" font-weight="normal" text-decoration="normal" x="73.75807612366145" y="659.1631497779999" text-anchor="start" dominant-baseline="alphabetic" xml:space="preserve">puppet config autosign</text></g><g><path fill="none" stroke="black" paint-order="fill stroke markers" d=" M 50.30239959032812 666.1998527379999 L 120.66942919032812 666.1998527379999 L 120.66942919032812 689.0691373579999 L 64.78627984966145 689.0691373579999" stroke-miterlimit="10" stroke-width="1.4659797833333332" stroke-dasharray=""/><g transform="translate(50.30239959032812,689.0691373579999) translate(-50.30239959032812,-689.0691373579999)"><path fill="black" stroke="none" paint-order="stroke fill markers" d=" M 64.96219742366145 681.7392384413332 L 50.30239959032812 689.0691373579999 L 64.96219742366145 696.3990362746666 Z"/></g></g><g><g><rect fill="white" stroke="none" x="71.11931251366146" y="715.4567734579999" width="146.24382055496093" height="22.86928462"/></g><text fill="black" stroke="none" font-family="sans-serif" font-size="11pt" font-style="normal" font-weight="normal" text-decoration="normal" x="73.75807612366145" y="731.2893551179999" text-anchor="start" dominant-baseline="alphabetic" xml:space="preserve">puppet waitforcertcert</text></g><g><path fill="none" stroke="black" paint-order="fill stroke markers" d=" M 238.18004599195572 738.326058078 L 64.78627984966145 738.326058078" stroke-miterlimit="10" stroke-width="1.4659797833333332" stroke-dasharray=""/><g transform="translate(50.30239959032812,738.326058078) translate(-50.30239959032812,-738.326058078)"><path fill="black" stroke="none" paint-order="stroke fill markers" d=" M 64.96219742366145 730.9961591613333 L 50.30239959032812 738.326058078 L 64.96219742366145 745.6559569946667 Z"/></g></g><g><g><rect fill="white" stroke="none" x="130.84922373628515" y="764.713694178" width="146.24382055496093" height="22.86928462"/></g><text fill="black" stroke="none" font-family="sans-serif" font-size="11pt" font-style="normal" font-weight="normal" text-decoration="normal" x="133.48798734628517" y="780.5462758379999" text-anchor="start" dominant-baseline="alphabetic" xml:space="preserve">puppet waitforcertcert</text></g><g><path fill="none" stroke="black" paint-order="fill stroke markers" d=" M 357.6398684372031 787.582978798 L 64.78627984966145 787.582978798" stroke-miterlimit="10" stroke-width="1.4659797833333332" stroke-dasharray=""/><g transform="translate(50.30239959032812,787.582978798) translate(-50.30239959032812,-787.582978798)"><path fill="black" stroke="none" paint-order="stroke fill markers" d=" M 64.96219742366145 780.2530798813333 L 50.30239959032812 787.582978798 L 64.96219742366145 794.9128777146667 Z"/></g></g><g><g><rect fill="white" stroke="none" x="240.62367303974798" y="813.970614898" width="59.88021887039062" height="22.86928462"/></g><text fill="black" stroke="none" font-family="sans-serif" font-size="11pt" font-style="normal" font-weight="normal" text-decoration="normal" x="243.262436649748" y="829.803196558" text-anchor="start" dominant-baseline="alphabetic" xml:space="preserve">git clone</text></g><g><path fill="none" stroke="black" paint-order="fill stroke markers" d=" M 50.30239959032812 836.839899518 L 476.34128510022526 836.839899518" stroke-miterlimit="10" stroke-width="1.4659797833333332" stroke-dasharray=""/><g transform="translate(490.8251653595586,836.839899518) translate(-490.8251653595586,-836.839899518)"><path fill="black" stroke="none" paint-order="stroke fill markers" d=" M 476.1653675262252 829.5100006013333 L 490.8251653595586 836.839899518 L 476.1653675262252 844.1697984346667 Z"/></g></g><g><g><rect fill="white" stroke="none" x="71.11931251366146" y="863.227535618" width="148.69905126785156" height="22.86928462"/></g><text fill="black" stroke="none" font-family="sans-serif" font-size="11pt" font-style="normal" font-weight="normal" text-decoration="normal" x="73.75807612366145" y="879.060117278" text-anchor="start" dominant-baseline="alphabetic" xml:space="preserve">librarian-puppet install</text></g><g><path fill="none" stroke="black" paint-order="fill stroke markers" d=" M 50.30239959032812 886.096820238 L 120.66942919032812 886.096820238 L 120.66942919032812 908.966104858 L 64.78627984966145 908.966104858" stroke-miterlimit="10" stroke-width="1.4659797833333332" stroke-dasharray=""/><g transform="translate(50.30239959032812,908.966104858) translate(-50.30239959032812,-908.966104858)"><path fill="black" stroke="none" paint-order="stroke fill markers" d=" M 64.96219742366145 901.6362059413333 L 50.30239959032812 908.966104858 L 64.96219742366145 916.2960037746667 Z"/></g></g><g><g><rect fill="white" stroke="none" x="258.99695891528904" y="935.353740958" width="46.845154173124996" height="22.86928462"/></g><text fill="black" stroke="none" font-family="sans-serif" font-size="11pt" font-style="normal" font-weight="normal" text-decoration="normal" x="261.63572252528905" y="951.186322618" text-anchor="start" dominant-baseline="alphabetic" xml:space="preserve">reboot</text></g><g><path fill="none" stroke="black" paint-order="fill stroke markers" d=" M 238.18004599195572 958.2230255779999 L 308.5470755919557 958.2230255779999 L 308.5470755919557 981.092310198 L 252.66392625128907 981.092310198" stroke-miterlimit="10" stroke-width="1.4659797833333332" stroke-dasharray=""/><g transform="translate(238.18004599195572,981.092310198) translate(-238.18004599195572,-981.092310198)"><path fill="black" stroke="none" paint-order="stroke fill markers" d=" M 252.83984382528905 973.7624112813332 L 238.18004599195572 981.092310198 L 252.83984382528905 988.4222091146667 Z"/></g></g><g><g><rect fill="white" stroke="none" x="378.45678136053647" y="1007.4799462980001" width="46.845154173124996" height="22.86928462"/></g><text fill="black" stroke="none" font-family="sans-serif" font-size="11pt" font-style="normal" font-weight="normal" text-decoration="normal" x="381.0955449705365" y="1023.312527958" text-anchor="start" dominant-baseline="alphabetic" xml:space="preserve">reboot</text></g><g><path fill="none" stroke="black" paint-order="fill stroke markers" d=" M 357.6398684372031 1030.349230918 L 428.0068980372031 1030.349230918 L 428.0068980372031 1053.218515538 L 372.12374869653644 1053.218515538" stroke-miterlimit="10" stroke-width="1.4659797833333332" stroke-dasharray=""/><g transform="translate(357.6398684372031,1053.218515538) translate(-357.6398684372031,-1053.218515538)"><path fill="black" stroke="none" paint-order="stroke fill markers" d=" M 372.2996662705365 1045.8886166213333 L 357.6398684372031 1053.218515538 L 372.2996662705365 1060.5484144546667 Z"/></g></g><g><g><rect fill="white" stroke="none" x="71.11931251366146" y="1079.606151638" width="46.845154173124996" height="22.86928462"/></g><text fill="black" stroke="none" font-family="sans-serif" font-size="11pt" font-style="normal" font-weight="normal" text-decoration="normal" x="73.75807612366145" y="1095.438733298" text-anchor="start" dominant-baseline="alphabetic" xml:space="preserve">reboot</text></g><g><path fill="none" stroke="black" paint-order="fill stroke markers" d=" M 50.30239959032812 1102.4754362580002 L 120.66942919032812 1102.4754362580002 L 120.66942919032812 1125.344720878 L 64.78627984966145 1125.344720878" stroke-miterlimit="10" stroke-width="1.4659797833333332" stroke-dasharray=""/><g transform="translate(50.30239959032812,1125.344720878) translate(-50.30239959032812,-1125.344720878)"><path fill="black" stroke="none" paint-order="stroke fill markers" d=" M 64.96219742366145 1118.0148219613334 L 50.30239959032812 1125.344720878 L 64.96219742366145 1132.6746197946668 Z"/></g></g></g><g/><g/><g/><g/></g></svg>